<svg width="175" height="31" viewBox="0 0 175 31" fill="none" xmlns="http://www.w3.org/2000/svg">
<path d="M0.634766 0.890625H1.90039V30H0.634766V0.890625ZM8.22852 0.890625H9.49414V23.6719H19.6191V24.9375H9.49414V26.2031H19.6191V27.4688H9.49414V28.7344H19.6191V30H8.22852V0.890625ZM5.69727 0.890625H6.96289V30H5.69727V0.890625ZM3.16602 0.890625H4.43164V30H3.16602V0.890625ZM30.0254 4.6875H31.291V30H30.0254V4.6875ZM27.4941 4.6875H28.7598V30H27.4941V4.6875ZM24.9629 4.6875H26.2285V30H24.9629V4.6875ZM22.4316 4.6875H23.6973V30H22.4316V4.6875ZM54.4238 17.2031C54.4121 17.2031 54.4062 17.209 54.4062 17.2207C54.9688 17.7949 55.4375 18.5039 55.8125 19.3477C56.1875 20.1914 56.375 21.0469 56.375 21.9141C56.375 23.8008 55.7246 25.3887 54.4238 26.6777C53.1348 27.9551 51.5879 28.5938 49.7832 28.5938H41.7852V29.8594H49.7832C51.2129 29.8594 52.5137 29.5488 53.6855 28.9277C54.8691 28.3066 55.8242 27.3867 56.5508 26.168C57.2773 24.9375 57.6406 23.5195 57.6406 21.9141C57.6406 20.2383 57.1367 18.7031 56.1289 17.3086C57.1367 15.9609 57.6406 14.3496 57.6406 12.4746C57.6406 11.1035 57.2832 9.82031 56.5684 8.625C55.8535 7.41797 54.8867 6.46289 53.668 5.75977C52.4609 5.04492 51.166 4.6875 49.7832 4.6875H34.5957V30H35.8613V5.95312H49.7832C51.5645 5.95312 53.1055 6.60352 54.4062 7.9043C55.7188 9.19336 56.375 10.7168 56.375 12.4746C56.375 14.3262 55.7129 15.8965 54.3887 17.1855L54.4238 17.2031ZM49.7832 23.5312C50.2168 23.5312 50.5801 23.3906 50.873 23.1094C51.166 22.8281 51.3125 22.4297 51.3125 21.9141C51.3125 21.4922 51.1543 21.1172 50.8379 20.7891C50.5332 20.4609 50.1816 20.2969 49.7832 20.2969H41.7676V19.0312H49.7832C50.5215 19.0312 51.1719 19.3242 51.7344 19.9102C52.2969 20.4844 52.5781 21.1523 52.5781 21.9141C52.5781 22.793 52.3027 23.4961 51.752 24.0234C51.2129 24.5391 50.5566 24.7969 49.7832 24.7969H41.7852V23.5312H49.7832ZM49.7832 26.0625C50.8965 26.0625 51.8516 25.6758 52.6484 24.9023C53.4453 24.1289 53.8438 23.1328 53.8438 21.9141C53.8438 20.8125 53.4336 19.8457 52.6133 19.0137C51.8047 18.1816 50.8613 17.7656 49.7832 17.7656H45.916H41.7852V16.5H45.916H49.7832C50.8965 16.5 51.8516 16.125 52.6484 15.375C53.4453 14.6133 53.8438 13.6465 53.8438 12.4746C53.8438 11.4199 53.4336 10.4941 52.6133 9.69727C51.8047 8.88867 50.8613 8.48438 49.7832 8.48438H38.3926V30H37.127V7.21875H49.7832C51.2129 7.21875 52.4551 7.74609 53.5098 8.80078C54.5762 9.84375 55.1094 11.0684 55.1094 12.4746C55.1094 13.5059 54.8457 14.4375 54.3184 15.2695C53.8027 16.0898 53.1172 16.7227 52.2617 17.168C53.1172 17.6367 53.8027 18.3047 54.3184 19.1719C54.8457 20.0273 55.1094 20.9414 55.1094 21.9141C55.1094 23.4492 54.582 24.7383 53.5273 25.7812C52.4844 26.8125 51.2363 27.3281 49.7832 27.3281H41.7852V26.0625H49.7832ZM49.7832 13.9688C50.2168 13.9688 50.5801 13.8398 50.873 13.582C51.166 13.3242 51.3125 12.9551 51.3125 12.4746C51.3125 12.0996 51.1543 11.7656 50.8379 11.4727C50.5332 11.168 50.1816 11.0156 49.7832 11.0156H40.9238V30H39.6582V9.75H49.7832C50.5215 9.75 51.1719 10.0254 51.7344 10.5762C52.2969 11.127 52.5781 11.7598 52.5781 12.4746C52.5781 13.3184 52.3086 13.9922 51.7695 14.4961C51.2305 14.9883 50.5684 15.2344 49.7832 15.2344H41.7852V13.9688H49.7832ZM70.1035 17.9062H77.7324C78.7402 17.9062 79.5957 17.5898 80.2988 16.957C81.002 16.3242 81.3535 15.4336 81.3535 14.2852C81.3535 13.4414 80.9844 12.6855 80.2461 12.0176C79.5195 11.3496 78.6816 11.0156 77.7324 11.0156H66.8691V30H65.6035V9.75H77.7324C79.0332 9.75 80.1699 10.207 81.1426 11.1211C82.127 12.0352 82.6191 13.0898 82.6191 14.2852C82.6191 15.7734 82.1445 16.9629 81.1953 17.8535C80.2461 18.7324 79.0918 19.1719 77.7324 19.1719H70.1035V17.9062ZM70.1035 20.4375H77.7324C79.4199 20.4375 80.8672 19.8633 82.0742 18.7148C83.2812 17.5664 83.8848 16.0898 83.8848 14.2852C83.8848 12.75 83.2695 11.4023 82.0391 10.2422C80.8086 9.07031 79.373 8.48438 77.7324 8.48438H64.3379V30H63.0723V7.21875H77.7324C79.7246 7.21875 81.459 7.92773 82.9355 9.3457C84.4121 10.752 85.1504 12.3984 85.1504 14.2852C85.1504 16.3945 84.418 18.1582 82.9531 19.5762C81.5 20.9941 79.7598 21.7031 77.7324 21.7031H70.1035V20.4375ZM70.1035 22.9688H77.7324C79.291 22.9688 80.7324 22.5938 82.0566 21.8438C83.3809 21.0938 84.4355 20.0508 85.2207 18.7148C86.0176 17.3789 86.416 15.9023 86.416 14.2852C86.416 12.8203 86.0234 11.4492 85.2383 10.1719C84.4531 8.88281 83.3867 7.85742 82.0391 7.0957C80.7031 6.33398 79.2676 5.95312 77.7324 5.95312H61.8066V30H60.541V4.6875H77.7324C79.0566 4.6875 80.3281 4.95117 81.5469 5.47852C82.7773 5.99414 83.8379 6.68555 84.7285 7.55273C85.6191 8.4082 86.334 9.42773 86.873 10.6113C87.4121 11.7949 87.6816 13.0195 87.6816 14.2852C87.6816 16.3359 87.2129 18.1289 86.2754 19.6641C85.3379 21.1875 84.0781 22.3477 82.4961 23.1445L85.1504 30H83.7969L81.2832 23.6543C80.9668 23.7598 80.5977 23.8652 80.1758 23.9707L82.5488 30H81.1953L78.875 24.1816C78.5117 24.2168 78.1309 24.2344 77.7324 24.2344L79.9648 30H78.6289L76.4141 24.2344H75.2715L77.3984 30H76.0625L73.918 24.2344H70.1035V22.9688ZM69.4004 30H68.1348V12.2812H77.7324C78.3887 12.2812 78.9453 12.4805 79.4023 12.8789C79.8594 13.2656 80.0879 13.7344 80.0879 14.2852C80.0879 15.8555 79.3027 16.6406 77.7324 16.6406H70.1035V15.375H77.7324C78.459 15.375 78.8223 15.0117 78.8223 14.2852C78.8223 14.0859 78.7109 13.916 78.4883 13.7754C78.2773 13.623 78.0254 13.5469 77.7324 13.5469H69.4004V30ZM108.459 17.5195C108.459 16.0195 107.996 14.8594 107.07 14.0391C106.145 13.2188 104.92 12.8086 103.396 12.8086C102.107 12.8086 101 13.2539 100.074 14.1445C99.1484 15.0352 98.6855 16.1016 98.6855 17.3438C98.6855 18.0469 98.7793 18.6797 98.9668 19.2422C99.1543 19.793 99.4062 20.2559 99.7227 20.6309C100.051 20.9941 100.438 21.2988 100.883 21.5449C101.328 21.7793 101.791 21.9492 102.271 22.0547C102.764 22.1602 103.285 22.2129 103.836 22.2129C105.172 22.2129 106.391 21.8848 107.492 21.2285V22.4941C106.355 23.0918 105.131 23.3906 103.818 23.3906C102.975 23.3906 102.178 23.2793 101.428 23.0566C100.689 22.8223 100.016 22.4766 99.4062 22.0195C98.7969 21.5508 98.3105 20.918 97.9473 20.1211C97.5957 19.3125 97.4199 18.3867 97.4199 17.3438C97.4199 15.7266 97.9883 14.3555 99.125 13.2305C100.262 12.1055 101.686 11.543 103.396 11.543C105.283 11.543 106.807 12.0762 107.967 13.1426C109.139 14.1973 109.725 15.6562 109.725 17.5195V30H108.459V17.5195ZM112.256 17.5195V30H110.99V17.5195C110.99 15.3047 110.281 13.5469 108.863 12.2461C107.445 10.9336 105.623 10.2773 103.396 10.2773C101.334 10.2773 99.6113 10.9629 98.2285 12.334C96.8457 13.7051 96.1543 15.375 96.1543 17.3438C96.1543 18.5391 96.3594 19.6113 96.7695 20.5605C97.1914 21.5098 97.7598 22.2715 98.4746 22.8457C99.1895 23.4199 99.9863 23.8594 100.865 24.1641C101.756 24.457 102.693 24.6035 103.678 24.6035C105.014 24.6035 106.285 24.293 107.492 23.6719V25.0078C106.227 25.5352 104.949 25.7988 103.66 25.7988C102.5 25.7988 101.398 25.623 100.355 25.2715C99.3125 24.9082 98.3809 24.3867 97.5605 23.707C96.7402 23.0156 96.0898 22.125 95.6094 21.0352C95.1289 19.9336 94.8887 18.7031 94.8887 17.3438C94.8887 15.0352 95.7031 13.0723 97.332 11.4551C98.9727 9.82617 100.994 9.01172 103.396 9.01172C105.084 9.01172 106.596 9.35742 107.932 10.0488C109.268 10.7285 110.322 11.7188 111.096 13.0195C111.869 14.3203 112.256 15.8203 112.256 17.5195ZM114.787 17.5195V30H113.521V17.5195C113.521 15.5859 113.076 13.875 112.186 12.3867C111.307 10.8867 110.1 9.73828 108.564 8.94141C107.029 8.14453 105.307 7.74609 103.396 7.74609C101.58 7.74609 99.9219 8.17969 98.4219 9.04688C96.9219 9.90234 95.7441 11.0625 94.8887 12.5273C94.0449 13.9922 93.623 15.5977 93.623 17.3438C93.623 18.8438 93.8984 20.2148 94.4492 21.457C95 22.6875 95.7383 23.7012 96.6641 24.498C97.6016 25.2949 98.6621 25.916 99.8457 26.3613C101.041 26.7949 102.289 27.0117 103.59 27.0117C104.914 27.0117 106.215 26.7363 107.492 26.1855V27.4688C106.156 27.9727 104.844 28.2246 103.555 28.2246C101.527 28.2246 99.6641 27.7676 97.9648 26.8535C96.2656 25.9395 94.9062 24.6445 93.8867 22.9688C92.8672 21.293 92.3574 19.418 92.3574 17.3438C92.3574 15.8672 92.6387 14.4609 93.2012 13.125C93.7754 11.7891 94.5488 10.6348 95.5215 9.66211C96.4941 8.68945 97.666 7.91602 99.0371 7.3418C100.408 6.76758 101.861 6.48047 103.396 6.48047C105.541 6.48047 107.475 6.9375 109.197 7.85156C110.932 8.76562 112.297 10.0664 113.293 11.7539C114.289 13.4414 114.787 15.3633 114.787 17.5195ZM117.318 17.5195V30H116.053V17.5195C116.053 15.1289 115.496 12.9961 114.383 11.1211C113.27 9.23438 111.752 7.78125 109.83 6.76172C107.908 5.73047 105.764 5.21484 103.396 5.21484C101.123 5.21484 99.043 5.75977 97.1562 6.84961C95.2695 7.93945 93.7871 9.41602 92.709 11.2793C91.6309 13.1309 91.0918 15.1523 91.0918 17.3438C91.0918 18.7852 91.3203 20.1562 91.7773 21.457C92.2461 22.7461 92.8789 23.877 93.6758 24.8496C94.4844 25.8105 95.4102 26.6426 96.4531 27.3457C97.5078 28.0488 98.6387 28.582 99.8457 28.9453C101.064 29.3086 102.301 29.4902 103.555 29.4902C104.938 29.4902 106.25 29.2266 107.492 28.6992V30C106.191 30.457 104.855 30.6855 103.484 30.6855C102.066 30.6855 100.684 30.4863 99.3359 30.0879C98 29.6895 96.7578 29.1035 95.6094 28.3301C94.4727 27.5449 93.4707 26.625 92.6035 25.5703C91.7363 24.5039 91.0566 23.2617 90.5645 21.8438C90.0723 20.4258 89.8262 18.9258 89.8262 17.3438C89.8262 15.5273 90.166 13.7988 90.8457 12.1582C91.5371 10.5059 92.4746 9.08203 93.6582 7.88672C94.8535 6.67969 96.2949 5.72461 97.9824 5.02148C99.6816 4.30664 101.486 3.94922 103.396 3.94922C105.342 3.94922 107.17 4.27734 108.881 4.93359C110.592 5.58984 112.068 6.50391 113.311 7.67578C114.553 8.83594 115.531 10.2656 116.246 11.9648C116.961 13.6641 117.318 15.5156 117.318 17.5195ZM130.01 17.9062H137.639C138.646 17.9062 139.502 17.5898 140.205 16.957C140.908 16.3242 141.26 15.4336 141.26 14.2852C141.26 13.4414 140.891 12.6855 140.152 12.0176C139.426 11.3496 138.588 11.0156 137.639 11.0156H126.775V30H125.51V9.75H137.639C138.939 9.75 140.076 10.207 141.049 11.1211C142.033 12.0352 142.525 13.0898 142.525 14.2852C142.525 15.7734 142.051 16.9629 141.102 17.8535C140.152 18.7324 138.998 19.1719 137.639 19.1719H130.01V17.9062ZM130.01 20.4375H137.639C139.326 20.4375 140.773 19.8633 141.98 18.7148C143.188 17.5664 143.791 16.0898 143.791 14.2852C143.791 12.75 143.176 11.4023 141.945 10.2422C140.715 9.07031 139.279 8.48438 137.639 8.48438H124.244V30H122.979V7.21875H137.639C139.631 7.21875 141.365 7.92773 142.842 9.3457C144.318 10.752 145.057 12.3984 145.057 14.2852C145.057 16.3945 144.324 18.1582 142.859 19.5762C141.406 20.9941 139.666 21.7031 137.639 21.7031H130.01V20.4375ZM130.01 22.9688H137.639C139.197 22.9688 140.639 22.5938 141.963 21.8438C143.287 21.0938 144.342 20.0508 145.127 18.7148C145.924 17.3789 146.322 15.9023 146.322 14.2852C146.322 12.8203 145.93 11.4492 145.145 10.1719C144.359 8.88281 143.293 7.85742 141.945 7.0957C140.609 6.33398 139.174 5.95312 137.639 5.95312H121.713V30H120.447V4.6875H137.639C138.963 4.6875 140.234 4.95117 141.453 5.47852C142.684 5.99414 143.744 6.68555 144.635 7.55273C145.525 8.4082 146.24 9.42773 146.779 10.6113C147.318 11.7949 147.588 13.0195 147.588 14.2852C147.588 16.3359 147.119 18.1289 146.182 19.6641C145.244 21.1875 143.984 22.3477 142.402 23.1445L145.057 30H143.703L141.189 23.6543C140.873 23.7598 140.504 23.8652 140.082 23.9707L142.455 30H141.102L138.781 24.1816C138.418 24.2168 138.037 24.2344 137.639 24.2344L139.871 30H138.535L136.32 24.2344H135.178L137.305 30H135.969L133.824 24.2344H130.01V22.9688ZM129.307 30H128.041V12.2812H137.639C138.295 12.2812 138.852 12.4805 139.309 12.8789C139.766 13.2656 139.994 13.7344 139.994 14.2852C139.994 15.8555 139.209 16.6406 137.639 16.6406H130.01V15.375H137.639C138.365 15.375 138.729 15.0117 138.729 14.2852C138.729 14.0859 138.617 13.916 138.395 13.7754C138.184 13.623 137.932 13.5469 137.639 13.5469H129.307V30ZM173.375 4.6875H174.641L166.678 21.457V30H165.412V21.457L173.375 4.6875ZM170.844 4.6875H172.109L164.146 21.457V30H162.881V21.457L170.844 4.6875ZM168.312 4.6875H169.578L161.615 21.457V30H160.35V21.457L168.312 4.6875ZM165.781 4.6875H167.047L159.084 21.457V30H157.818V21.457L149.328 4.6875H150.594L158.434 20.1738L165.781 4.6875ZM151.877 4.6875H153.143L159.418 16.623L158.785 18.0117L151.877 4.6875ZM154.408 4.6875H155.691L160.684 13.8457L160.033 15.2344L154.408 4.6875ZM156.975 4.6875H158.24L161.949 11.0859L161.316 12.4746L156.975 4.6875Z" fill="white"/>
</svg>
